<?xml version="1.0" encoding="UTF-8"?>
<svg width="222px" height="66px" viewBox="0 0 222 66" version="1.1" xmlns="http://www.w3.org/2000/svg" xmlns:xlink="http://www.w3.org/1999/xlink">
    <!-- Generator: Sketch 51.2 (57519) - http://www.bohemiancoding.com/sketch -->
    <title>google_play_hover</title>
    <desc>Created with Sketch.</desc>
    <defs></defs>
    <g id="Page-1" stroke="none" stroke-width="1" fill="none" fill-rule="evenodd">
        <g id="Artboard" transform="translate(-289.000000, -433.000000)">
            <g id="google_play_hover" transform="translate(289.000000, 433.000000)">
                <rect id="Rectangle" fill="#FFD850" fill-rule="nonzero" x="1" y="0" width="220" height="65" rx="10"></rect>
                <path d="M8.98610497,2.98219823 C5.6778196,2.98219823 2.97118629,5.69886298 2.97118629,9.01940967 L2.97118629,56.9819685 C2.97118629,60.301137 5.6778196,63.0184909 8.98610497,63.0184909 L213.013666,63.0184909 C216.321952,63.0184909 219.028585,60.301137 219.028585,56.9819685 L219.028585,9.01940967 C219.028585,5.69886298 216.321952,2.98219823 213.013666,2.98219823 L8.98610497,2.98219823 Z M8.98633382,0 L213.013666,0 C217.956184,0 222,4.05880326 222,9.01940967 L222,56.9819685 C222,61.9411967 217.956184,66 213.013666,66 L8.98633382,66 C4.04358704,66 0,61.9411967 0,56.9819685 L0,9.01940967 C0,4.05880326 4.04358704,0 8.98633382,0 Z" id="Fill-51" fill="#210444"></path>
                <path d="M80.8128542,36.4691802 L70.4603421,36.4691802 L70.4603421,39.5998525 L77.8025655,39.5998525 C77.4396713,43.9898092 73.855636,45.8621264 70.4726514,45.8621264 C66.144364,45.8621264 62.3674842,42.3913707 62.3674842,37.5272949 C62.3674842,32.7886598 65.9679318,29.1392674 70.4819972,29.1392674 C73.9650513,29.1392674 76.0172723,31.4020765 76.0172723,31.4020765 L78.1684229,29.1320661 C78.1684229,29.1320661 75.4075099,26 70.372126,26 C63.9603888,25.9997677 59,31.5147408 59,37.4715436 C59,43.3084809 63.6658792,49 70.5355652,49 C76.5773419,49 81,44.7819434 81,38.5447577 C81,37.2290251 80.8126263,36.468251 80.8126263,36.468251 L80.8128542,36.4691802" id="Fill-53" fill="#210444"></path>
                <path d="M89.5072745,33 C85.1338976,33 82,36.4336554 82,40.4386048 C82,44.5024747 85.0395638,48 89.5581959,48 C93.6488064,48 97,44.859769 97,40.5258072 C97,35.5583314 93.1018116,33 89.5072745,33 Z M89.5504521,35.9457931 C91.7011201,35.9457931 93.7389162,37.6921989 93.7389162,40.5060099 C93.7389162,43.2599576 91.7095679,45.0560924 89.5405964,45.0560924 C87.1573793,45.0560924 85.2770408,43.1390526 85.2770408,40.4840914 C85.2770408,37.8861654 87.1341479,35.9460288 89.5504521,35.9460288 L89.5504521,35.9457931 Z" id="Fill-54" fill="#210444"></path>
                <path d="M105.507157,33 C101.134083,33 98,36.4336554 98,40.4386048 C98,44.5024747 101.039751,48 105.558547,48 C109.648859,48 113,44.859769 113,40.5258072 C113,35.5583314 109.102107,33 105.507157,33 Z M105.550569,35.9457931 C107.700968,35.9457931 109.738967,37.6921989 109.738967,40.5060099 C109.738967,43.2599576 107.709651,45.0560924 105.540478,45.0560924 C103.157533,45.0560924 101.277459,43.1390526 101.277459,40.4840914 C101.277459,37.8861654 103.134068,35.9460288 105.550569,35.9460288 L105.550569,35.9457931 Z" id="Fill-55" fill="#210444"></path>
                <path d="M121.005733,33 C117.083568,33 114,36.4094958 114,40.2363881 C114,44.5958362 117.574527,47.486659 120.938086,47.486659 C123.018181,47.486659 124.123927,46.6671146 124.94028,45.726721 L124.94028,47.1548357 C124.94028,49.6535244 123.411682,51.1505982 121.104337,51.1505982 C118.875418,51.1505982 117.757289,49.5049094 117.368833,48.571571 L114.564109,49.7352285 C115.559326,51.8242587 117.562144,54 121.127498,54 C125.027649,54 128,51.5625325 128,46.4493129 L128,33.4353758 L124.94051,33.4353758 L124.94051,34.6620752 C123.999869,33.6559086 122.713425,33.0002276 121.005733,33.0002276 L121.005733,33 Z M121.289622,35.8389327 C123.212868,35.8389327 125.187709,37.4686904 125.187709,40.2518641 C125.187709,43.0807829 123.216995,44.6397607 121.247199,44.6397607 C119.156326,44.6397607 117.210378,42.9546992 117.210378,40.2787194 C117.210378,37.4982768 119.231311,35.8389327 121.289622,35.8389327 Z" id="Fill-56" fill="#210444"></path>
                <path d="M141.611597,33 C138.017563,33 135,36.0225075 135,40.4823424 C135,45.2013906 138.36349,48 141.956855,48 C144.95593,48 146.796494,46.2660252 147.895086,44.7121578 L145.444861,42.9887776 C144.808917,44.0319877 143.745742,45.0514189 141.97178,45.0514189 C139.979302,45.0511835 139.062918,43.8977901 138.495134,42.7806536 L148,38.6122865 L147.506391,37.3906172 C146.588225,34.9983677 144.446506,33.0004709 141.611819,33.0004709 L141.611597,33 Z M141.735667,35.8817177 C143.030722,35.8817177 143.962698,36.6092102 144.358521,37.4819657 L138.011103,40.2859901 C137.737569,38.115049 139.683493,35.8817177 141.735444,35.8817177 L141.735667,35.8817177 Z" id="Fill-57" fill="#210444"></path>
                <polygon id="Fill-58" fill="#210444" points="130 47 133 47 133 26 130 26"></polygon>
                <polygon id="Fill-59" fill="#210444" points="173 47 176 47 176 26 173 26"></polygon>
                <polygon id="Fill-60" fill="#210444" points="156 47 159 47 159 26 156 26"></polygon>
                <path d="M159.296073,29.2834792 L159.296073,36.7165208 L163.973034,36.7165208 C166.018735,36.7165208 167.704162,35.0377671 167.704162,33.0001171 C167.704162,30.9622329 166.018735,29.2834792 163.973034,29.2834792 L159.296073,29.2834792 Z M156,26 L163.973034,26 C167.837971,26 171,29.1499473 171,33.0001171 C171,36.8500527 167.837971,40 163.973034,40 L156,40 L156,26 Z" id="Fill-61" fill="#210444"></path>
                <polyline id="Fill-62" fill="#210444" points="200.286683 54 209 33 205.713102 33 197 54 200.286683 54"></polyline>
                <polyline id="Fill-63" fill="#210444" points="201.634094 49 194 33 197.734468 33 203 44.0353737 201.634094 44.0353737 201.634094 49"></polyline>
                <path d="M188.877828,41.6197869 C188.480659,43.3403288 187.141183,44.578016 185.441975,45.0388124 C181.851951,46.013345 180.958819,40.2047516 186.293905,41.00348 C187.209852,41.1135506 188.009062,41.3396474 188.877828,41.6197869 Z M188.877828,47.6006551 L191.982522,47.6006551 L191.982522,40.1593116 C192.468295,32.484592 182.697235,30.6795671 179,36.2122121 L181.498419,37.8815789 C183.306168,34.7343108 188.46471,35.4584824 188.803843,38.8314062 C187.253489,38.4224467 185.578647,38.1259841 184.048451,38.2801711 C181.659901,38.5208264 179.614914,40.0313739 179.289958,42.5054248 C179.1143,43.8423741 179.414004,45.4903444 180.351215,46.4946555 C181.811857,48.0594663 184.209932,48.270343 186.180048,47.7356515 C187.289153,47.4345567 188.162348,46.7783244 188.877828,45.9306266 L188.877828,47.6006551 Z" id="Fill-64" fill="#210444"></path>
                <path d="M69.9060835,14.007102 L64.7299076,14.007102 L64.7299076,15.5043499 L68.4011657,15.5043499 C68.2195938,17.6041103 66.4276672,18.4995783 64.7361687,18.4995783 C62.5720823,18.4995783 60.6834844,16.8397399 60.6834844,14.513183 C60.6834844,12.2469262 62.4836756,10.5016423 64.7406767,10.5016423 C66.4825145,10.5016423 67.5085834,11.5836255 67.5085834,11.5836255 L68.5839898,10.4979804 C68.5839898,10.4979804 67.2035426,9 64.6858294,9 C61.4798962,9 59,11.6375782 59,14.4863287 C59,17.278197 61.3328856,20 64.7674742,20 C67.7885798,20 70,17.9829997 70,14.9999778 C70,14.3706112 69.9060835,14.0068578 69.9060835,14.0068578 L69.9060835,14.007102" id="Fill-65" fill="#210444"></path>
                <polygon id="Fill-66" fill="#210444" points="89 19 91 19 91 9 89 9"></polygon>
                <path d="M80.6827483,19 L82.3172517,19 L82.3172517,10.4941667 L85,10.4941667 L85,9 C82.6667521,9 80.3335042,9 78,9 L78,10.4941667 L80.6827483,10.4941667 L80.6827483,19" id="Fill-67" fill="#210444"></path>
                <path d="M71,19 L77,19 L77,17.505599 L72.5646309,17.505599 L72.5646309,14.7470834 L76.4660289,14.7470834 L76.4660289,13.2529166 L72.5646309,13.2529166 L72.5646309,10.4941667 L77,10.4941667 L77,9 L71,9 C71,12.3331772 71,15.6665886 71,19" id="Fill-68" fill="#210444"></path>
                <path d="M94.6828465,19 L96.3171535,19 L96.3171535,10.4941667 L99,10.4941667 L99,9 C96.6666667,9 94.3333333,9 92,9 L92,10.4941667 L94.6828465,10.4941667 L94.6828465,19" id="Fill-69" fill="#210444"></path>
                <path d="M107.5,9 C104.398983,9 102,11.6375683 102,14.4868158 C102,17.25647 104.22093,19.9572735 107.5,20 C110.77907,19.9572735 113,17.25647 113,14.4868158 C113,11.6375683 110.601017,9 107.5,9 Z M107.5,18.4996893 C105.427083,18.4740534 103.628634,16.8223687 103.628634,14.5136725 C103.628634,12.26577 105.341812,10.5303414 107.5,10.5022639 C109.65843,10.5303414 111.371366,12.26577 111.371366,14.5136725 C111.371366,16.8223687 109.572917,18.4740534 107.5,18.4996893 Z" id="Fill-70" fill="#210444"></path>
                <polyline id="Fill-71" fill="#210444" points="114 19 115.343634 19 115.343634 11.7158787 119.658683 19 121 19 121 9 119.656366 9 119.656366 16.280373 115.343634 9 114 9 114 19"></polyline>
                <path d="M18.8247196,20.1960463 L35.6230617,36.5241654 L18.9053688,52.9954619 C18.4175111,52.6936776 18.1559839,52.0401898 18.1515552,51.1961014 C18.143164,49.5771307 18.0100695,23.8896139 18.0000466,21.9620518 C17.9953848,21.0376388 18.3408244,20.4737787 18.8247196,20.1960463 Z M41.1624496,31.0666346 L20.7355928,20.2180562 C20.5174204,20.1021075 20.2696456,20.0315399 20.0228031,20 L36.3179035,35.8393647 L41.1624496,31.0666346 Z M42.0708019,41.4312236 L37.0176402,36.5194004 L42.0656739,31.5463128 L49.0173551,35.2378382 C50.7298685,36.1468216 49.8539157,37.2840719 49.0173551,37.7297143 L42.0708019,41.4312236 Z M20.2901575,53 C20.4325756,52.9478117 20.5812871,52.8820091 20.7355928,52.7980541 L41.1666452,41.9124901 L36.3227984,37.2042012 L20.2901575,53 Z" id="Fill-72" fill="#210444"></path>
            </g>
        </g>
    </g>
</svg>